<?xml version="1.0" encoding="UTF-8"?>
<svg id="Layer_2" data-name="Layer 2" xmlns="http://www.w3.org/2000/svg" viewBox="0 0 300 114.37">
  <defs>
    <style>
      .cls-1 {
        fill: #ffc866;
      }

      .cls-1, .cls-2, .cls-3, .cls-4 {
        stroke-width: 0px;
      }

      .cls-2 {
        fill: #082c56;
      }

      .cls-3 {
        fill: #f9a602;
      }

      .cls-4 {
        fill: #e8572a;
      }
    </style>
  </defs>
  <g id="Layer_1-2" data-name="Layer 1">
    <g>
      <path class="cls-2" d="M148.99,72.52c-2.69,0-5.19-.5-7.5-1.51-2.33-.99-4.36-2.39-6.12-4.16s-3.12-3.82-4.1-6.17c-.98-2.35-1.48-4.85-1.48-7.53s.5-5.19,1.48-7.5c.98-2.33,2.35-4.36,4.07-6.13,1.74-1.77,3.76-3.15,6.06-4.13,2.3-.98,4.8-1.48,7.49-1.48s5.17.5,7.49,1.48c2.3.98,4.33,2.36,6.09,4.13,1.75,1.77,3.12,3.82,4.1,6.17.98,2.35,1.48,4.85,1.48,7.53s-.5,5.19-1.48,7.53c-.98,2.35-2.35,4.4-4.07,6.13-1.74,1.75-3.76,3.12-6.06,4.13-2.3.99-4.78,1.51-7.42,1.51h-.02ZM148.88,66.62c2.53,0,4.77-.57,6.68-1.71,1.91-1.15,3.42-2.72,4.5-4.75,1.09-2.02,1.63-4.35,1.63-7,0-1.97-.31-3.76-.93-5.39s-1.51-3.04-2.66-4.24c-1.15-1.2-2.5-2.11-4.05-2.76-1.55-.64-3.28-.96-5.17-.96-2.5,0-4.71.56-6.62,1.69-1.91,1.13-3.42,2.69-4.5,4.69-1.09,2-1.63,4.33-1.63,6.97,0,1.97.31,3.77.93,5.44s1.51,3.09,2.62,4.26c1.13,1.18,2.47,2.1,4.05,2.76,1.57.67,3.29.99,5.14.99v.02ZM166.15,74.56l-16.9-16.88,3.96-3.98,16.9,16.9-3.96,3.96h0Z"/>
      <path class="cls-2" d="M181.9,71.98v-38.61h5.9v38.61h-5.9ZM199.54,71.98v-14.85c0-1.71-.54-3.12-1.63-4.24-1.09-1.1-2.5-1.66-4.21-1.66-1.15,0-2.16.25-3.06.75-.9.5-1.58,1.2-2.1,2.1-.5.9-.75,1.91-.75,3.06l-2.3-1.29c0-1.97.43-3.71,1.29-5.23.85-1.52,2.05-2.72,3.57-3.59s3.23-1.32,5.13-1.32,3.65.43,5.14,1.29c1.49.85,2.69,2.05,3.54,3.57.85,1.52,1.29,3.28,1.29,5.28v16.14h-5.92Z"/>
      <path class="cls-2" d="M230.73,72.52c-2.33,0-4.43-.59-6.31-1.77-1.88-1.18-3.35-2.78-4.46-4.8-1.09-2.02-1.63-4.29-1.63-6.79s.54-4.81,1.63-6.83c1.09-2.02,2.58-3.63,4.46-4.83,1.88-1.2,3.98-1.8,6.31-1.8,1.97,0,3.71.42,5.23,1.26s2.72,1.99,3.62,3.46c.9,1.46,1.34,3.12,1.34,4.99v7.39c0,1.86-.43,3.53-1.32,4.99-.87,1.46-2.08,2.62-3.62,3.46-1.54.84-3.29,1.26-5.25,1.26v.02ZM231.7,66.95c2.17,0,3.94-.73,5.28-2.21,1.34-1.46,2-3.34,2-5.64,0-1.54-.31-2.89-.92-4.07s-1.46-2.1-2.55-2.76c-1.09-.67-2.38-.99-3.84-.99s-2.69.33-3.77.99c-1.09.67-1.94,1.58-2.58,2.76-.62,1.18-.93,2.53-.93,4.07s.31,2.89.93,4.07c.62,1.18,1.48,2.1,2.58,2.76,1.09.67,2.35.99,3.77.99l.02.02ZM238.61,72v-6.91l1.03-6.27-1.03-6.21v-6.32h5.9v25.73h-5.9v-.02Z"/>
      <path class="cls-2" d="M256.22,71.98v-38.61h5.9v38.61h-5.9Z"/>
      <path class="cls-2" d="M286.22,72.52c-2.33,0-4.43-.59-6.31-1.77s-3.35-2.78-4.46-4.8c-1.09-2.02-1.63-4.29-1.63-6.79s.54-4.81,1.63-6.83c1.09-2.02,2.58-3.63,4.46-4.83,1.88-1.2,3.98-1.8,6.31-1.8,1.97,0,3.71.42,5.23,1.26s2.72,1.99,3.62,3.46c.9,1.46,1.34,3.12,1.34,4.99v7.39c0,1.86-.43,3.53-1.32,4.99-.87,1.46-2.08,2.62-3.62,3.46-1.54.84-3.29,1.26-5.25,1.26v.02ZM287.19,66.95c2.17,0,3.94-.73,5.28-2.21,1.34-1.46,2-3.34,2-5.64,0-1.54-.31-2.89-.92-4.07-.61-1.18-1.46-2.1-2.55-2.76-1.09-.67-2.38-.99-3.84-.99s-2.69.33-3.77.99c-1.09.67-1.94,1.58-2.58,2.76-.62,1.18-.93,2.53-.93,4.07s.31,2.89.93,4.07c.62,1.18,1.48,2.1,2.58,2.76,1.09.67,2.35.99,3.77.99l.02.02ZM294.1,72v-6.91l1.03-6.27-1.03-6.21v-6.32h5.9v25.73h-5.9v-.02Z"/>
      <path class="cls-2" d="M70.78,101.75c-.84.33-1.71.64-2.56.92-5.26,1.76-10.76,2.65-16.4,2.65C23.25,105.32,0,82.07,0,53.5c0-13.49,5.19-25.81,13.66-35.03C21.65,9.77,32.56,3.81,44.82,2.16c.71,2.11,1.31,4.24,1.56,6.45.04.44.08.92.1,1.43-10.71,1.3-20.23,6.49-27.12,14.09-7.05,7.78-11.35,18.09-11.35,29.39,0,24.14,19.64,43.8,43.8,43.8,4.33,0,8.58-.62,12.65-1.85l6.31,6.31h.01Z"/>
      <path class="cls-2" d="M69.42,82.91l31.46,31.46h-11.35l-29.08-29.08-1.57-1.57-21-20.99,10.84-11.81,2.95-3.21,28.24,28.24,5.54,5.54c6.56-7.86,10.12-17.66,10.12-27.99,0-19.65-13.02-36.33-30.89-41.86-2-3.91-5.38-7.06-8.96-9.82,26.74,2.02,47.88,24.42,47.88,51.68,0,13.83-5.4,26.85-15.19,36.64l-2.84,2.84h0l-12.1-12.1-21.57-21.57-2.92,3.19s20.42,20.42,20.42,20.42Z"/>
      <path class="cls-4" d="M77.8,32.67s-.02-.03-.03-.04,0-.01,0-.01c0,0-.01-.01-.02-.02-.06-.08-.12-.16-.18-.24.07.08.12.16.19.24-3.7-4.56-6.58-9.66-8.27-15.3-2.32,1.78-2.94,5.1-2.49,7.99s1.77,5.57,2.66,8.36c.89,2.79,1.32,5.94.04,8.58s-4.8,4.3-7.3,2.74c-2.02-1.27-2.55-3.96-2.57-6.34-.08-8.16,3.55-16.5,1.09-24.28-1.94-6.17-7.31-10.56-12.56-14.35,1,2.82,2,5.67,2.32,8.64.34,2.97-.04,7.9-1.62,10.44-1.11-2.29-3.18-4.09-5.59-4.89,1.08,4.76-1.4,7.79-4.21,11.77-2.82,3.98-6.14,7.88-7.12,12.66-1.96-3.61-1.94-8.22.04-11.82-.19.35-.9.71-1.21.97-6.3,5.28-10.38,13.02-11.46,21.15-.46,3.46-.38,6.98.3,10.41,2.4,11.99,12.08,22.21,23.93,25.27,11.84,3.04,25.26-1.25,33.15-10.6,5.15-6.11,7.77-14.19,7.58-22.15-.17-6.79-2.42-13.8-6.62-19.15"/>
      <path class="cls-1" d="M63.8,54.5c-8.18,18.55-22.28,11.5-26.22,9.04-.01-.01-.02-.01-.03-.02,0-.08-.01-.14,0-.22-.01-.08-.01-.15-.01-.23,0-2.55,1.1-5.17,3.37-7.38,6.83-6.64,5.79-10.35,5.72-10.6.58.14,3.79,3.73,1.5,8.96-.58,1.33-.93,2.97-.12,4.28,1.58,2.57,6.35,2.34,6.38-1.22.03-2.09-1.14-4.16-2.18-5.87-5.62-9.26,2.72-14.82,2.72-14.82-2.31,9.85,3.05,11.93,8.69,17.86.06.06.12.13.19.2Z"/>
      <path class="cls-3" d="M66.17,61.1c0,5.94-4.63,12.43-14.27,12.43h-.5c-.08-.01-.17-.01-.25-.01s-.17-.01-.25-.01c-.34-.01-.68-.03-1-.06-.26-.01-.52-.04-.78-.08-7.34-.87-11.32-5.18-11.57-9.85.01.01.02.01.03.02,3.94,2.45,18.04,9.51,26.22-9.04,1.53,1.73,2.33,4.02,2.36,6.42.01.06.01.12.01.18Z"/>
    </g>
  </g>
</svg>