<svg id="svg2" xmlns="http://www.w3.org/2000/svg" xmlns:xlink="http://www.w3.org/1999/xlink" viewBox="0 0 339.56 117.01"><defs><style>.cls-1{fill:none;}.cls-2{clip-path:url(#clip-path);}.cls-3{fill:url(#linear-gradient);}.cls-4{clip-path:url(#clip-path-2);}.cls-5{fill:url(#linear-gradient-2);}.cls-6{fill:#234f92;}</style><clipPath id="clip-path"><path class="cls-1" d="M6.61,85.49A58.5,58.5,0,0,0,115.37,44.77a49.92,49.92,0,0,0-92.79-2A39.2,39.2,0,0,1,96.65,67.53c-.05.22-.1.44-.16.66s-.09.38-.13.57A49.92,49.92,0,0,1,6.61,85.49Z"/></clipPath><linearGradient id="linear-gradient" x1="-201.14" y1="354.37" x2="-200.14" y2="354.37" gradientTransform="matrix(67.98, -77.08, 77.08, 67.98, -13609.77, -39490.8)" gradientUnits="userSpaceOnUse"><stop offset="0" stop-color="#234f93"/><stop offset="0.09" stop-color="#234f93"/><stop offset="0.43" stop-color="#3373c0"/><stop offset="0.69" stop-color="#a1b8e3"/><stop offset="0.86" stop-color="#e1e7f5"/><stop offset="1" stop-color="#f4fbfe"/></linearGradient><clipPath id="clip-path-2"><path class="cls-1" d="M1.58,45a58.29,58.29,0,0,0,5,40.45,49.7,49.7,0,0,0,29.68,20.35A49.89,49.89,0,0,0,96.36,68.76c0-.19.09-.38.13-.57A39.2,39.2,0,0,1,20.36,49.48c.21-.89.45-1.77.73-2.63a35.58,35.58,0,0,1,1.23-3.42c.09-.21.17-.42.26-.62a49.92,49.92,0,0,1,92.79,2A58.49,58.49,0,0,0,1.58,45Z"/></clipPath><linearGradient id="linear-gradient-2" x1="-201.08" y1="354.11" x2="-200.08" y2="354.11" gradientTransform="translate(-15276.37 -44313.75) rotate(-48.59) scale(115.34)" gradientUnits="userSpaceOnUse"><stop offset="0" stop-color="#f4fbfe"/><stop offset="0.23" stop-color="#d7dff2"/><stop offset="0.38" stop-color="#b8c8e9"/><stop offset="0.63" stop-color="#3373c0"/><stop offset="0.94" stop-color="#234f93"/><stop offset="1" stop-color="#234f93"/></linearGradient></defs><g id="g10"><g id="g12"><g id="g14"><g class="cls-2"><g id="g16"><path id="path36" class="cls-3" d="M6.61,85.49A58.5,58.5,0,0,0,115.37,44.77a49.92,49.92,0,0,0-92.79-2A39.2,39.2,0,0,1,96.65,67.53c-.05.22-.1.44-.16.66s-.09.38-.13.57A49.92,49.92,0,0,1,6.61,85.49"/></g></g></g><g id="g38"><g class="cls-4"><g id="g40"><path id="path60" class="cls-5" d="M1.58,45a58.29,58.29,0,0,0,5,40.45,49.7,49.7,0,0,0,29.68,20.35A49.89,49.89,0,0,0,96.36,68.76c0-.19.09-.38.13-.57A39.2,39.2,0,0,1,20.36,49.48c.21-.89.45-1.77.73-2.63a35.58,35.58,0,0,1,1.23-3.42c.09-.21.17-.42.26-.62a49.92,49.92,0,0,1,92.79,2A58.49,58.49,0,0,0,1.58,45"/></g></g></g><path id="path62" class="cls-6" d="M140.21,96.9h13.4V43.09h-13.4V96.9"/><path id="path64" class="cls-6" d="M176.83,58.07c0-3.38,3.37-4.85,6.86-4.85a20.44,20.44,0,0,1,13.19,4.64l5-9.92s-5.91-6.12-18.05-6.12c-11.61,0-20.58,5.8-20.58,15.83,0,17.3,26.18,16.25,26.18,24.27,0,3.17-3.28,4.85-7.07,4.85a22.51,22.51,0,0,1-14.67-5.91l-6.12,9.4s7.49,7.91,20.89,7.91C195.19,98.17,203,91,203,82c0-17.31-26.17-16.36-26.17-24"/><path id="path66" class="cls-6" d="M221.78,63.35c1.27-7,6-11.19,12.88-11.19,5.91,0,10.44,3.91,10.66,11.19ZM235,41.82c-16,0-27.33,11.61-27.33,28.18,0,15.3,11.08,28.17,28.92,28.17a33.63,33.63,0,0,0,21.63-7.7L253,80.86s-6.86,5.91-15.51,5.91c-8,0-15.3-4.85-16.15-14.24h37.15s.31-3.59.31-5.17c0-14.25-8.33-25.54-23.85-25.54"/><path id="path68" class="cls-6" d="M296.81,73.58c0,6.55-5.06,14.14-12.13,14.14-5.49,0-8.13-3.37-8.13-7,0-7.49,11.08-8.44,17.94-8.44h2.32Zm-9.18-31.76a36.3,36.3,0,0,0-21.1,6.65l5.07,9.6s7.06-5.17,14.77-5.17c5.91,0,10.34,2.43,10.34,9.5v.74h-1.79c-8.76,0-31.87,1.16-31.87,18.25,0,10.76,8.65,16.78,18.25,16.78,12.25,0,16.47-9.5,16.36-9.5h.21a34.35,34.35,0,0,0-.21,3.8V96.9H310V63.24c0-13.61-8.23-21.42-22.38-21.42"/><path id="path70" class="cls-6" d="M337.55,85.51c-3.48,0-5.49-1.48-5.49-7.39V22H318.77V80.13c0,15.4,9.18,17.3,16.57,17.3a31.28,31.28,0,0,0,4.22-.31V85.4a19.71,19.71,0,0,1-2,.11"/><path id="path72" class="cls-6" d="M147.19,19.17a8.2,8.2,0,1,0,8.2,8.2,8.2,8.2,0,0,0-8.2-8.2"/></g></g></svg>